{"error":"ffmpeg exited with code 234: Error opening output file /tmp/job-1317e5c2-160e-427d-882b-58e587105851-output.mp4.\nError opening output files: Invalid argument\n","stack":"Error: ffmpeg exited with code 234: Error opening output file /tmp/job-1317e5c2-160e-427d-882b-58e587105851-output.mp4.\nError opening output files: Invalid argument\n\n    at s.<anonymous> (/var/task/.next/server/chunks/[root-of-the-server]__e7278d88._.js:1:48877)\n    at s.emit (node:events:508:28)\n    at s (/var/task/.next/server/chunks/[root-of-the-server]__e7278d88._.js:1:28192)\n    at /var/task/.next/server/chunks/[root-of-the-server]__e7278d88._.js:1:29658\n    at m (/var/task/.next/server/chunks/[root-of-the-server]__e7278d88._.js:1:26075)\n    at ChildProcess.<anonymous> (/var/task/.next/server/chunks/[root-of-the-server]__e7278d88._.js:1:26173)\n    at ChildProcess.emit (node:events:508:28)\n    at ChildProcess._handle.onexit (node:internal/child_process:294:12)","ffmpegError":"ffmpeg version 7.0.2-static https://johnvansickle.com/ffmpeg/  Copyright (c) 2000-2024 the FFmpeg developers\n  built with gcc 8 (Debian 8.3.0-6)\n  configuration: --enable-gpl --enable-version3 --enable-static --disable-debug --disable-ffplay --disable-indev=sndio --disable-outdev=sndio --cc=gcc --enable-fontconfig --enable-frei0r --enable-gnutls --enable-gmp --enable-libgme --enable-gray --enable-libaom --enable-libfribidi --enable-libass --enable-libvmaf --enable-libfreetype --enable-libmp3lame --enable-libopencore-amrnb --enable-libopencore-amrwb --enable-libopenjpeg --enable-librubberband --enable-libsoxr --enable-libspeex --enable-libsrt --enable-libvorbis --enable-libopus --enable-libtheora --enable-libvidstab --enable-libvo-amrwbenc --enable-libvpx --enable-libwebp --enable-libx264 --enable-libx265 --enable-libxml2 --enable-libdav1d --enable-libxvid --enable-libzvbi --enable-libzimg\n  libavutil      59.  8.100 / 59.  8.100\n  libavcodec     61.  3.100 / 61.  3.100\n  libavformat    61.  1.100 / 61.  1.100\n  libavdevice    61.  1.100 / 61.  1.100\n  libavfilter    10.  1.100 / 10.  1.100\n  libswscale      8.  1.100 /  8.  1.100\n  libswresample   5.  1.100 /  5.  1.100\n  libpostproc    58.  1.100 / 58.  1.100\n-vsync is deprecated. Use -fps_mode\nInput #0, png_pipe, from '/tmp/job-1317e5c2-160e-427d-882b-58e587105851-slide-0.png':\n  Duration: N/A, bitrate: N/A\n  Stream #0:0: Video: png, rgba(pc, gbr/unknown/unknown), 1080x1920 [SAR 2835:2835 DAR 9:16], 25 fps, 25 tbr, 25 tbn\n[aist#1:0/pcm_s16le @ 0x2b925d80] Guessed Channel Layout: mono\nInput #1, wav, from '/tmp/job-1317e5c2-160e-427d-882b-58e587105851-audio-0.wav':\n  Duration: 00:00:05.33, bitrate: 384 kb/s\n  Stream #1:0: Audio: pcm_s16le ([1][0][0][0] / 0x0001), 24000 Hz, mono, s16, 384 kb/s\nInput #2, png_pipe, from '/tmp/job-1317e5c2-160e-427d-882b-58e587105851-slide-1.png':\n  Duration: N/A, bitrate: N/A\n  Stream #2:0: Video: png, rgba(pc, gbr/unknown/unknown), 1080x1920 [SAR 2835:2835 DAR 9:16], 25 fps, 25 tbr, 25 tbn\n[aist#3:0/pcm_s16le @ 0x2b9e2e40] Guessed Channel Layout: mono\nInput #3, wav, from '/tmp/job-1317e5c2-160e-427d-882b-58e587105851-audio-1.wav':\n  Duration: 00:00:05.65, bitrate: 384 kb/s\n  Stream #3:0: Audio: pcm_s16le ([1][0][0][0] / 0x0001), 24000 Hz, mono, s16, 384 kb/s\nInput #4, png_pipe, from '/tmp/job-1317e5c2-160e-427d-882b-58e587105851-slide-2.png':\n  Duration: N/A, bitrate: N/A\n  Stream #4:0: Video: png, rgba(pc, gbr/unknown/unknown), 1080x1920 [SAR 2835:2835 DAR 9:16], 25 fps, 25 tbr, 25 tbn\n[aist#5:0/pcm_s16le @ 0x2bf46400] Guessed Channel Layout: mono\nInput #5, wav, from '/tmp/job-1317e5c2-160e-427d-882b-58e587105851-audio-2.wav':\n  Duration: 00:00:05.57, bitrate: 384 kb/s\n  Stream #5:0: Audio: pcm_s16le ([1][0][0][0] / 0x0001), 24000 Hz, mono, s16, 384 kb/s\nInput #6, png_pipe, from '/tmp/job-1317e5c2-160e-427d-882b-58e587105851-slide-3.png':\n  Duration: N/A, bitrate: N/A\n  Stream #6:0: Video: png, rgba(pc, gbr/unknown/unknown), 1080x1920 [SAR 2835:2835 DAR 9:16], 25 fps, 25 tbr, 25 tbn\n[aist#7:0/pcm_s16le @ 0x2bf88e00] Guessed Channel Layout: mono\nInput #7, wav, from '/tmp/job-1317e5c2-160e-427d-882b-58e587105851-audio-3.wav':\n  Duration: 00:00:07.13, bitrate: 384 kb/s\n  Stream #7:0: Audio: pcm_s16le ([1][0][0][0] / 0x0001), 24000 Hz, mono, s16, 384 kb/s\nInput #8, png_pipe, from '/tmp/job-1317e5c2-160e-427d-882b-58e587105851-slide-4.png':\n  Duration: N/A, bitrate: N/A\n  Stream #8:0: Video: png, rgba(pc, gbr/unknown/unknown), 1080x1920 [SAR 2835:2835 DAR 9:16], 25 fps, 25 tbr, 25 tbn\n[aist#9:0/pcm_s16le @ 0x2c042b80] Guessed Channel Layout: mono\nInput #9, wav, from '/tmp/job-1317e5c2-160e-427d-882b-58e587105851-audio-4.wav':\n  Duration: 00:00:06.57, bitrate: 384 kb/s\n  Stream #9:0: Audio: pcm_s16le ([1][0][0][0] / 0x0001), 24000 Hz, mono, s16, 384 kb/s\n[vost#0:0/libx264 @ 0x2d24c500] One of -r/-fpsmax was specified together a non-CFR -vsync/-fps_mode. This is contradictory.\nError opening output file /tmp/job-1317e5c2-160e-427d-882b-58e587105851-output.mp4.\nError opening output files: Invalid argument\n","command":"ffmpeg -loop 1 -t 5.330958 -i /tmp/job-1317e5c2-160e-427d-882b-58e587105851-slide-0.png -i /tmp/job-1317e5c2-160e-427d-882b-58e587105851-audio-0.wav -loop 1 -t 5.650958 -i /tmp/job-1317e5c2-160e-427d-882b-58e587105851-slide-1.png -i /tmp/job-1317e5c2-160e-427d-882b-58e587105851-audio-1.wav -loop 1 -t 5.570958 -i /tmp/job-1317e5c2-160e-427d-882b-58e587105851-slide-2.png -i /tmp/job-1317e5c2-160e-427d-882b-58e587105851-audio-2.wav -loop 1 -t 7.130958 -i /tmp/job-1317e5c2-160e-427d-882b-58e587105851-slide-3.png -i /tmp/job-1317e5c2-160e-427d-882b-58e587105851-audio-3.wav -loop 1 -t 6.570958 -i /tmp/job-1317e5c2-160e-427d-882b-58e587105851-slide-4.png -i /tmp/job-1317e5c2-160e-427d-882b-58e587105851-audio-4.wav -y -filter_complex [0:v]scale=1080:1920:force_original_aspect_ratio=decrease,pad=1080:1920:(ow-iw)/2:(oh-ih)/2,setsar=1[v0];[2:v]scale=1080:1920:force_original_aspect_ratio=decrease,pad=1080:1920:(ow-iw)/2:(oh-ih)/2,setsar=1[v1];[4:v]scale=1080:1920:force_original_aspect_ratio=decrease,pad=1080:1920:(ow-iw)/2:(oh-ih)/2,setsar=1[v2];[6:v]scale=1080:1920:force_original_aspect_ratio=decrease,pad=1080:1920:(ow-iw)/2:(oh-ih)/2,setsar=1[v3];[8:v]scale=1080:1920:force_original_aspect_ratio=decrease,pad=1080:1920:(ow-iw)/2:(oh-ih)/2,setsar=1[v4];[v0][1:a][v1][3:a][v2][5:a][v3][7:a][v4][9:a]concat=n=5:v=1:a=1[outv][outa] -acodec aac -vcodec libx264 -map [outv] -map [outa] -pix_fmt yuv420p -r 30 -vsync vfr -y /tmp/job-1317e5c2-160e-427d-882b-58e587105851-output.mp4"}